<?xml version="1.0" encoding="UTF-8" standalone="no"?>
<svg width="20px" height="20px" viewBox="0 0 20 20" version="1.1" xmlns="http://www.w3.org/2000/svg" xmlns:xlink="http://www.w3.org/1999/xlink">
    <!-- Generator: Sketch 3.8.3 (29802) - http://www.bohemiancoding.com/sketch -->
    <title>20x20/Clipboard</title>
    <desc>Created with Sketch.</desc>
    <defs>
        <polyline id="path-1" points="10.7822247 3 14 3 14 20 0 20 0 3 0 3 3.50954518 3"></polyline>
        <mask id="mask-2" maskContentUnits="userSpaceOnUse" maskUnits="objectBoundingBox" x="0" y="0" width="14" height="17" fill="white">
            <use xlink:href="#path-1"></use>
        </mask>
        <rect id="path-3" x="3" y="2" width="8" height="3"></rect>
        <mask id="mask-4" maskContentUnits="userSpaceOnUse" maskUnits="objectBoundingBox" x="0" y="0" width="8" height="3" fill="white">
            <use xlink:href="#path-3"></use>
        </mask>
        <path d="M7,3 C8.1045695,3 9,3.1045695 9,2 C9,0.8954305 8.1045695,0 7,0 C5.8954305,0 5,0.8954305 5,2 C5,3.1045695 5.8954305,3 7,3 Z" id="path-5"></path>
        <mask id="mask-6" maskContentUnits="userSpaceOnUse" maskUnits="objectBoundingBox" x="0" y="0" width="4" height="3.00265019" fill="white">
            <use xlink:href="#path-5"></use>
        </mask>
    </defs>
    <g id="20x20" stroke="none" stroke-width="1" fill="none" fill-rule="evenodd">
        <g id="20x20/Clipboard">
            <g id="Clipboard">
                <g id="Icon" transform="translate(3.000000, 0.000000)">
                    <use id="Line-62" stroke="#36434D" mask="url(#mask-2)" stroke-width="2" xlink:href="#path-1"></use>
                    <use id="Line-61" stroke="#36434D" mask="url(#mask-4)" stroke-width="2" xlink:href="#path-3"></use>
                    <use id="Line-60" stroke="#35424C" mask="url(#mask-6)" stroke-width="2" stroke-linecap="square" xlink:href="#path-5"></use>
                    <path d="M3.5,12.5 L8.5,12.5" id="Line-59" stroke="#36434D" stroke-linecap="round" stroke-linejoin="round"></path>
                    <path d="M3.5,9.5 L9.5,9.5" id="Line-58" stroke="#36434D" stroke-linecap="round" stroke-linejoin="round"></path>
                    <path d="M3.5,15.5 L10.5,15.5" id="Line-57" stroke="#36434D" stroke-linecap="round" stroke-linejoin="round"></path>
                </g>
            </g>
        </g>
    </g>
</svg>